[img]http://ia.media-imdb.com/images/M/MV5BMTkwOTY0MTc1NV5BMl5BanBnXkFtZTcwMDQwNjA2NQ@@._V1._SY317_.jpg[/img]


 º     Plot.     º

Autobots Bumblebee, Ratchet, Ironhide and Sideswipe led by Optimus Prime, are back in 
action taking on the evil Decepticons, who are eager to avenge their recent defeat. 
The Autobots and Decepticons become involved in a perilous space race between the 
United States and Russia, to reach a hidden Cybertronian spacecraft on the moon and 
learn its secrets, and once again Sam Witwicky has to come to the aid of his robot 
friends. The new villain, Shockwave, who rules Cybertron, is on the scene while the 
Autobots and Decepticons continue to battle it out on Earth. Written by Kris S. 


 º   General.    º


Complete name                  : Transformers 3 Dark Of The Moon 2011 
Format                         : MPEG-4
Format profile                 : Base Media
Codec ID                       : isom
File size                      : 475 MiB
Duration                       : 2h 33mn
Overall bit rate               : 432 Kbps
Encoded date                   : UTC 2011-10-05 16:38:22
Tagged date                    : UTC 2011-10-05 16:38:
Language                       : English
IMDb                           : http://www.imdb.com/title/tt1399103/
IMDb Rating                    : 6.4/10


º  SCREENSHOTS  º

[IMG]http://imagestorage.org/images/31883647667543504171.jpg[/IMG]

[IMG]http://imagestorage.org/images/34346657122521026305.jpg[/IMG]

[IMG]http://imagestorage.org/images/85045078143819143137.jpg[/IMG]

[IMG]http://imagestorage.org/images/02728228354479378746.jpg[/IMG]

[IMG]http://imagestorage.org/images/31535258525794226883.jpg[/IMG]

[IMG]http://imagestorage.org/images/65634902302548693327.jpg[/IMG]

[IMG]http://imagestorage.org/images/04105768018481695513.jpg[/IMG]


 º    Video.     º


ID                             : 1
Format                         : AVC
Format/Info                    : Advanced Video Codec
Format profile                 : High@L3.0
Format settings, CABAC         : Yes
Format settings, ReFrames      : 4 frames
Codec ID                       : avc1
Codec ID/Info                  : Advanced Video Coding
Duration                       : 2h 33mn
Bit rate                       : 404 Kbps
Maximum bit rate               : 2 127 Kbps
Width                          : 720 pixels
Height                         : 304 pixels
Display aspect ratio           : 2.35:1
Frame rate mode                : Constant
Frame rate                     : 23.976 fps
Color space                    : YUV
Chroma subsampling             : 4:2:0
Bit depth                      : 8 bits
Scan type                      : Progressive
Bits/(Pixel*Frame)             : 0.077
Stream size                    : 444 MiB (93%)
Writing library                : x264 core 116 r2074 2641b9e
Encoding settings              : cabac=1 / ref=3 / deblock=1:0:0 / analyse=0x3:0x113 
/ me=umh / subme=5 / psy=1 / psy_rd=1.00:0.00 / mixed_ref=1 / me_range=12 / chroma_me=1 
/ trellis=1 / 8x8dct=1 / cqm=0 / deadzone=21,11 / fast_pskip=1 / chroma_qp_offset=0 
/ threads=3 / sliced_threads=0 / nr=0 / decimate=1 / interlaced=0 / bluray_compat=0 
/ constrained_intra=0 / bframes=3 / b_pyramid=2 / b_adapt=1 / b_bias=0 / direct=3 / 
weightb=1 / open_gop=0 / weightp=2 / keyint=250 / keyint_min=23 / scenecut=40 / 
intra_refresh=0 / rc_lookahead=40 / rc=2pass / mbtree=1 / bitrate=404 / ratetol=1.0 / 
qcomp=0.60 / qpmin=10 / qpmax=51 / qpstep=4 / cplxblur=20.0 / qblur=0.5 / ip_ratio=1.40 
/ aq=1:1.00
Encoded date                   : UTC 2011-10-05 16:38:22
Tagged date                    : UTC 2011-10-05 16:39:28

 
 º    Audio.     º


ID                             : 2
Format                         : AAC
Format/Info                    : Advanced Audio Codec
Format profile                 : HE-AAC / LC
Codec ID                       : 40
Duration                       : 2h 33mn
Bit rate mode                  : Variable
Bit rate                       : 25.0 Kbps
Maximum bit rate               : 29.7 Kbps
Channel(s)                     : 2 channels
Channel positions              : Front: L R
Sampling rate                  : 48.0 KHz / 24.0 KHz
Compression mode               : Lossy
Stream size                    : 27.5 MiB (6%)
Encoded date                   : UTC 2011-10-05 16:39:22
Tagged date                    : UTC 2011-10-05 16:39:28
